<svg id="c" data-name="clean line" xmlns="http://www.w3.org/2000/svg" width="64" height="64" viewBox="0 0 64 64">
<g id="t" data-name="dog in leash copy">
<path d="M60.938,36.002l-15.399,.962-.658-1.074c1.991-.544,3.347-2.772,2.735-4.832,2.052,.219,3.745-2.155,2.945-4.026,.276-.062,.546-.179,.754-.397,.447,.556,1.134,.902,1.735,.342l7.937-7.963c.932-.912-.45-2.345-1.394-1.435l-6.465,6.534c.002-.76-.715-1.45-1.471-1.425l9.344-9.689c.912-.931-.496-2.334-1.423-1.406l-10.769,11.131c-.593,.644-.192,1.314,.384,1.79-.219,.208-.336,.478-.397,.754-1.884-.801-4.224,.891-4.026,2.946-1.453-.432-3.106,.141-4.043,1.269l-6.199-7.783,.02-.369c.797,.522,2.631,.272,3.534,.328,1.591,0,2.908-1.249,2.998-2.851l.44-8.779c.086-1.616-1.157-3.028-2.779-3.148l-6.779-.47c-1.389-.119-2.753,.846-3.088,2.197H14.023c-.321-1.372-1.684-2.339-3.093-2.237l-6.699,.47c-1.903,.08-3.288,2.139-2.64,3.932l2.919,8.829c.405,1.23,1.55,2.057,2.85,2.057,.124,.021,1.421-.007,1.509-.014l.222,4.216c.11,2.124,.829,4.159,2.084,5.893,1.033,1.319,1.764,2.894,2.06,4.54l.591,3.333c.484,2.679,2.694,4.647,5.353,4.893l2.347,6.849c-.635,.534-1.92,1.042-1.421,2.077l2,4c.287,.608,1.115,.718,1.602,.281l1.176,3.426c.436,1.24,2.31,.585,1.892-.649l-1.356-3.95c7.481-5.245,13.957-12.115,18.051-19.136,.376,.524,.769,1.691,1.592,1.58l16-1c1.304-.1,1.193-2.063-.125-1.996Zm-13.891-8.635c.929-.92,2.333,.485,1.414,1.414-.929,.919-2.333-.485-1.414-1.414Zm-3.287,2.703c2.228,.001,2.75,3.152,.67,3.881l-1.788-3.352c-.024-.045-.051-.088-.082-.128,.338-.254,.756-.401,1.199-.401Zm-3.963,1.458c-.05,.324-.049,.647,.014,.97-3.539,5.965-8.983,11.737-16.605,17.604l-1.896-5.533h2.44c2.857,0,5.33-2.034,5.88-4.834l.741-3.712c.294-1.594,1.044-3.057,2.001-4.365,1.456-2.028,1.979-4.5,1.994-6.948l5.431,6.818Zm-24.594,4.412c-.224-1.227-.654-2.418-1.241-3.528,1.752-1.153,4.906-3.508,5.729-5.979l1.883-4.821,.678,3.205c.39,1.838,1.453,3.462,2.999,4.578l4.288,3.041c-1.028,1.771-1.446,4.913-1.87,6.911-.367,1.867-2.015,3.223-3.918,3.223h-4.02c-1.935,0-3.59-1.387-3.935-3.294l-.591-3.335Zm-1.09-26.218h0Zm-3.289,11.029c.335-.387,.616-.824,.752-1.326l2.332-8.816h15.1s3.664,8.185,3.67,8.19l-.378,7.092c-.079,1.736-.689,3.413-1.714,4.836l-4.171-2.958c-1.137-.82-1.92-2.016-2.207-3.366l-1.135-5.361c-.304-1.28-2.256-1.325-2.618-.062l-2.645,6.774c-.574,1.724-3.079,3.743-4.914,4.964-2.197-2.569-1.839-6.834-2.072-9.966ZM31.821,8.408l6.775,.469c.542,.04,.957,.514,.925,1.053l-.44,8.773c-.03,.537-.47,.957-1.001,.957h-2.19c-.39,0-.746-.234-.907-.599-.032-.05-.37-.836-.38-.861l-3.761-8.393c-.271-.656,.125-1.417,.979-1.4ZM7.36,19.66c-.434,0-.815-.274-.951-.684L3.489,10.146c-.215-.6,.242-1.282,.88-1.309l6.693-.469c.734-.011,1.116,.521,1.063,1.135l-2.481,9.406c-.252,1.019-1.529,.708-2.285,.751ZM23.653,55.354c-.089,.062-.177,.124-.266,.185l-1.114-2.229c8.698-6.33,15.591-13.349,19.472-20.143l.883,1.656c-3.992,7.542-10.877,14.99-18.975,20.531Zm-5.405-19.338c-.251-.655,.232-1.358,.934-1.358h4.573c.701,0,1.185,.703,.934,1.358l-.926,2.414c-.148,.387-.52,.642-.934,.642h-2.722c-.414,0-.785-.255-.934-.642l-.926-2.414Zm-3.492-12.944c2.631,.038,2.632,2.962,0,3-2.631-.038-2.632-2.962,0-3Zm14,0c2.631,.038,2.632,2.962,0,3-2.631-.038-2.632-2.962,0-3Z" id="id_101" style="fill: rgb(66, 158, 166);"></path>
</g>
</svg>